<?xml version="1.0" encoding="UTF-8"?>
<!--
  Sumi (墨) — wordmark only (light ink for dark backgrounds)
  Identical geometry to logo-wordmark-dark.svg, but fill color is sumi-paper.
-->
<svg
  xmlns="http://www.w3.org/2000/svg"
  viewBox="0 0 160 64"
  role="img"
  aria-labelledby="sumi-word-title sumi-word-desc"
  fill="currentColor"
>
  <title id="sumi-word-title">sumi</title>
  <desc id="sumi-word-desc">The word "sumi" in a warm off-white ink, for dark backgrounds.</desc>

  <path d="
    M 28.6 30.8
    C 28.6 28.2 26.6 26.8 22.8 26.8
    C 19.2 26.8 17.0 28.4 17.0 30.6
    C 17.0 32.2 18.2 33.2 20.6 33.6
    L 24.4 34.2
    C 28.4 34.8 30.6 36.6 30.6 39.6
    C 30.6 43.2 27.2 45.6 22.2 45.6
    C 17.2 45.6 14.2 43.2 14.0 39.8
    L 17.0 39.8
    C 17.2 41.8 19.2 43.0 22.2 43.0
    C 25.4 43.0 27.4 41.6 27.4 39.6
    C 27.4 38.0 26.4 37.0 23.8 36.6
    L 19.8 36.0
    C 15.8 35.4 13.8 33.6 13.8 30.6
    C 13.8 27.0 17.0 24.4 22.6 24.4
    C 28.0 24.4 31.4 27.0 31.6 30.8
    Z
  " color="#f3eee7" />

  <path d="
    M 38.4 25.0
    L 41.4 25.0
    L 41.4 38.2
    C 41.4 41.6 43.2 43.0 46.2 43.0
    C 49.2 43.0 51.0 41.6 51.0 38.2
    L 51.0 25.0
    L 54.0 25.0
    L 54.0 45.2
    L 51.0 45.2
    L 51.0 42.2
    C 50.0 44.4 47.8 45.6 45.2 45.6
    C 41.2 45.6 38.4 43.2 38.4 38.4
    Z
  " color="#f3eee7" />

  <path d="
    M 62.2 25.0
    L 65.2 25.0
    L 65.2 28.0
    C 66.2 25.8 68.2 24.6 70.8 24.6
    C 73.8 24.6 75.8 26.0 76.6 28.4
    C 77.6 26.0 79.8 24.6 82.6 24.6
    C 86.6 24.6 89.2 27.0 89.2 31.8
    L 89.2 45.2
    L 86.2 45.2
    L 86.2 32.0
    C 86.2 28.6 84.6 27.2 81.8 27.2
    C 79.0 27.2 77.2 28.8 77.2 32.2
    L 77.2 45.2
    L 74.2 45.2
    L 74.2 32.0
    C 74.2 28.6 72.6 27.2 69.8 27.2
    C 67.0 27.2 65.2 28.8 65.2 32.2
    L 65.2 45.2
    L 62.2 45.2
    Z
  " color="#f3eee7" />

  <circle cx="98.8" cy="19.2" r="1.8" color="#f3eee7" />
  <path d="
    M 97.2 25.0
    L 100.2 25.0
    L 100.2 45.2
    L 97.2 45.2
    Z
  " color="#f3eee7" />
</svg>
